<?xml version="1.0" ?><svg viewBox="0 0 512 512" xmlns="http://www.w3.org/2000/svg"><title/><g id="Strawberry_shortcake"><path d="M349.9879,271.7813,167.0653,166.17a5.1008,5.1008,0,1,0-5.1,8.8353L344.8879,280.6166a5.1008,5.1008,0,1,0,5.1-8.8353Z"/><path d="M367.6568,105.04a25.09,25.09,0,0,0-18.3978-7.05c-8.6424.3178-17.1715.913-25.6469,1.627-11.3344-26.9586-31.6584-46.11-45.656-46.11-16.8265,0-42.7374,27.6861-51.2441,63.3335a403.7011,403.7011,0,0,0-70.05,26.7009,36.9593,36.9593,0,0,0-20.1111,32.9409V321.4838a4.8355,4.8355,0,0,0,.1233.6147,4.9931,4.9931,0,0,0,.2092,1.0322,4.8538,4.8538,0,0,0,.4171.857,3.96,3.96,0,0,0,1.321,1.4915,4.6912,4.6912,0,0,0,.4794.4222L162.6533,339.5l.0049.0031,205.0957,118.41c.1208.07.2553.0981.38.1572.1369.0652.27.1174.4134.17.1519.0564.2951.1441.4507.1851a5.0832,5.0832,0,0,0,1.3012.17l.0025,0,.0025,0a5.124,5.124,0,0,0,.9786-.1274c.1058-.0206.2142-.0142.3187-.0416.1582-.0415.3039-.1289.4583-.186.1394-.0513.27-.1006.4021-.1631.122-.0573.2528-.0888.37-.1557.0075-.0037.0149-.0047.0224-.0088a4.9823,4.9823,0,0,0,.4557-.35,4.9136,4.9136,0,0,0,.5865-.4509l.0087-.0073.005-.0037a5.1136,5.1136,0,0,0,.7981-1.0381c.0038-.0063.0087-.01.0137-.0173l.0012-.0044c.0673-.1184.0984-.2549.157-.3784.0634-.1331.1157-.2637.1668-.4031a5.0005,5.0005,0,0,0,.2428-.9067c.0274-.1543.0486-.3.061-.4554.0112-.1357.0535-.2644.0535-.4018V123.2487A25.08,25.08,0,0,0,367.6568,105.04Zm-74.58,30.844a5.1,5.1,0,0,1,10.2,0v9.0994a5.1,5.1,0,1,1-10.2,0Zm-20.2207-35.7323a5.1,5.1,0,0,1,10.2,0v9.0993a5.1,5.1,0,1,1-10.2,0ZM252.6354,135.884a5.1,5.1,0,0,1,10.2,0v9.0994a5.1,5.1,0,0,1-10.2,0ZM224.7771,345.5593a5.098,5.098,0,0,1-7.2117,0l-9.3782-9.3781a5.0995,5.0995,0,1,1,7.2117-7.2118l9.3782,9.3783A5.098,5.098,0,0,1,224.7771,345.5593Zm51.2739,29.6015a5.0981,5.0981,0,0,1-7.2116,0l-9.3783-9.3758a5.1,5.1,0,0,1,7.2118-7.2118l9.3781,9.3758A5.0982,5.0982,0,0,1,276.051,375.1608Zm51.274,29.6038a5.098,5.098,0,0,1-7.2117,0l-9.3783-9.3781a5.1,5.1,0,0,1,7.2118-7.2118l9.3782,9.3783A5.0982,5.0982,0,0,1,327.325,404.7646ZM365.2039,289.4V307.766L179.8906,200.7747c-5.1473-2.966-10.3493-3.3694-14.2765-1.1007-3.4987,2.0195-5.5059,5.9018-5.5059,10.6457v30.5851c0,8.4543,6.45,18.8013,14.6824,23.5526L365.2039,374.3931v15.4211L179.8906,282.8229c-5.1473-2.9708-10.3493-3.3693-14.2765-1.1007-3.4987,2.0195-5.5059,5.9018-5.5059,10.6457V326.25l-13.3576-7.7121V176.4824a26.6907,26.6907,0,0,1,14.4658-23.8166,390.18,390.18,0,0,1,63.4873-24.6294,96.9549,96.9549,0,0,0-.84,11.8225c-.0013.0217-.0124.04-.0124.0619v.2091c0,.0287.0149.0517.0149.08.1818,25.9633,24.3968,47.0576,54.09,47.0576,29.6823,0,53.89-21.08,54.0866-47.0506.0012-.0307.0187-.0562.0187-.0871v-.1868l-.0025-.0112.0025-.0111-.0074-1.36c-.0025-.1366-.07-.2508-.0823-.3847a102.95,102.95,0,0,0-4.7974-28.6538c7.4271-.5818,14.9016-1.06,22.4582-1.3373a14.7675,14.7675,0,0,1,10.9471,4.1986,14.9721,14.9721,0,0,1,4.6243,10.8649ZM327.325,322.7164a5.098,5.098,0,0,1-7.2117,0l-9.3783-9.3783a5.0994,5.0994,0,0,1,7.2118-7.2116l9.3782,9.3781A5.0984,5.0984,0,0,1,327.325,322.7164Zm-51.274-29.6039a5.0979,5.0979,0,0,1-7.2116,0l-9.3783-9.3782a5.0995,5.0995,0,0,1,7.2118-7.2117l9.3781,9.3782A5.0981,5.0981,0,0,1,276.051,293.1125Zm-51.2739-29.6014a5.0982,5.0982,0,0,1-7.2117,0l-9.3782-9.3783a5.0994,5.0994,0,0,1,7.2117-7.2117l9.3782,9.3782A5.0982,5.0982,0,0,1,224.7771,263.5111Z"/></g></svg>